<svg width="179" height="25" viewBox="0 0 179 25" fill="none" xmlns="http://www.w3.org/2000/svg">
<path d="M16.352 19.2C14.4107 19.2 12.64 19.1147 11.04 18.944C9.46133 18.7733 7.95733 18.528 6.528 18.208C5.09867 17.8667 3.648 17.4827 2.176 17.056L1.44 18.624H0V10.816H1.44C1.71733 11.456 2.31467 12.1813 3.232 12.992C4.14933 13.8027 5.29067 14.5813 6.656 15.328C8.04267 16.0747 9.55733 16.6933 11.2 17.184C12.864 17.6533 14.5707 17.888 16.32 17.888C17.0027 17.888 17.6853 17.856 18.368 17.792C19.0507 17.728 19.616 17.6107 20.064 17.44C20.512 17.248 20.736 16.9813 20.736 16.64C20.736 16.2773 20.4373 15.9467 19.84 15.648C19.264 15.328 18.4853 15.04 17.504 14.784C16.5227 14.5067 15.4133 14.2293 14.176 13.952C12.96 13.6747 11.6907 13.376 10.368 13.056C9.06667 12.7147 7.79733 12.3413 6.56 11.936C5.344 11.5307 4.24533 11.072 3.264 10.56C2.28267 10.0267 1.49333 9.41867 0.896 8.736C0.32 8.032 0.0320001 7.24267 0.0320001 6.368C0.0320001 5.10933 0.309333 4.08533 0.864 3.296C1.41867 2.48533 2.144 1.856 3.04 1.408C3.95733 0.96 4.97067 0.64 6.08 0.448C7.18933 0.234667 8.29867 0.106667 9.408 0.0639992C10.5387 0.0213331 11.5733 0 12.512 0C15.4773 0 18.0907 0.202667 20.352 0.608C22.6347 1.01333 24.6613 1.45067 26.432 1.92C26.496 1.62133 26.5707 1.36533 26.656 1.152C26.7627 0.917332 26.848 0.714666 26.912 0.543999H28.352V6.656H26.944C26.1547 5.888 25.152 5.17333 23.936 4.512C22.72 3.85067 21.4187 3.28533 20.032 2.816C18.6667 2.32533 17.3333 1.952 16.032 1.696C14.752 1.41867 13.632 1.28 12.672 1.28C11.7547 1.28 10.9653 1.38667 10.304 1.6C9.664 1.81333 9.344 2.24 9.344 2.88C9.344 3.328 9.62133 3.70133 10.176 4C10.752 4.27733 11.5093 4.52267 12.448 4.736C13.408 4.94933 14.4747 5.152 15.648 5.344C16.8427 5.536 18.0693 5.74933 19.328 5.984C20.608 6.21867 21.8347 6.51733 23.008 6.88C24.2027 7.22133 25.2693 7.65867 26.208 8.192C27.168 8.704 27.9253 9.344 28.48 10.112C29.056 10.88 29.344 11.808 29.344 12.896C29.344 14.3893 28.8107 15.6053 27.744 16.544C26.6773 17.4613 25.1733 18.1333 23.232 18.56C21.2907 18.9867 18.9973 19.2 16.352 19.2ZM23.84 16.192C23.84 16.1493 23.8613 16.128 23.904 16.128C23.968 16.1067 24 16.0747 24 16.032C24 15.1147 23.7013 14.3787 23.104 13.824C22.5067 13.2693 21.696 12.8213 20.672 12.48C19.648 12.1387 18.4853 11.84 17.184 11.584C15.904 11.3067 14.5707 11.008 13.184 10.688C11.8613 10.3893 10.56 10.0373 9.28 9.632C8.02133 9.22667 6.88 8.768 5.856 8.256C4.85333 7.72267 4.04267 7.136 3.424 6.496C2.82667 5.856 2.51733 5.14133 2.496 4.352H2.272C2.12267 4.62933 2.016 4.90667 1.952 5.184C1.888 5.46133 1.856 5.728 1.856 5.984C1.856 6.96533 2.37867 7.85067 3.424 8.64C4.46933 9.408 6.05867 10.144 8.192 10.848C10.3253 11.5307 13.0347 12.256 16.32 13.024C17.664 13.3227 18.7947 13.6107 19.712 13.888C20.6507 14.144 21.44 14.4427 22.08 14.784C22.7413 15.1253 23.328 15.5947 23.84 16.192Z" fill="url(#paint0_linear_57_176)"/>
<path d="M44.079 24.224V22.944C44.463 22.1333 45.1563 21.4187 46.159 20.8C47.1617 20.2027 48.207 19.68 49.295 19.232L49.263 19.136C47.0017 19.008 44.8897 18.6773 42.927 18.144C40.9643 17.6107 39.247 16.9173 37.775 16.064C36.303 15.2107 35.151 14.2293 34.319 13.12C33.487 12.0107 33.071 10.8373 33.071 9.6C33.071 8.256 33.487 7.008 34.319 5.856C35.151 4.68267 36.335 3.65867 37.871 2.784C39.4283 1.90933 41.3057 1.22667 43.503 0.736C45.7003 0.245333 48.1537 0 50.863 0C53.5723 0 56.015 0.245333 58.191 0.736C60.3883 1.22667 62.255 1.90933 63.791 2.784C65.3483 3.65867 66.5323 4.68267 67.343 5.856C68.175 7.008 68.591 8.256 68.591 9.6C68.591 10.816 68.1857 11.968 67.375 13.056C66.5643 14.1227 65.4443 15.0827 64.015 15.936C62.5857 16.768 60.9323 17.4613 59.055 18.016C57.1777 18.5707 55.1617 18.9333 53.007 19.104C52.495 19.8507 52.239 20.608 52.239 21.376C52.239 21.7813 52.3243 22.1333 52.495 22.432C52.6657 22.7307 52.9003 22.88 53.199 22.88H57.551V24.224H44.079ZM50.863 17.856C52.6123 17.856 53.967 17.1627 54.927 15.776C55.9083 14.368 56.399 12.3093 56.399 9.6C56.399 7.76533 56.239 6.24 55.919 5.024C55.6203 3.78667 55.0657 2.85867 54.255 2.24C53.4657 1.62133 52.335 1.312 50.863 1.312C49.4123 1.312 48.2817 1.62133 47.471 2.24C46.6603 2.85867 46.095 3.78667 45.775 5.024C45.455 6.24 45.295 7.76533 45.295 9.6C45.295 12.3093 45.7857 14.368 46.767 15.776C47.7483 17.1627 49.1137 17.856 50.863 17.856ZM45.007 17.6L45.071 17.376C43.4923 16.9707 42.0843 16.3947 40.847 15.648C39.6097 14.9013 38.639 14.016 37.935 12.992C37.231 11.968 36.879 10.8373 36.879 9.6C36.879 8.34133 37.231 7.2 37.935 6.176C38.639 5.152 39.6097 4.26667 40.847 3.52C42.0843 2.77333 43.503 2.19733 45.103 1.792L45.039 1.6C43.0337 2.00533 41.2523 2.592 39.695 3.36C38.1377 4.10667 36.911 5.01333 36.015 6.08C35.1403 7.12533 34.703 8.288 34.703 9.568C34.703 10.848 35.1403 12.0213 36.015 13.088C36.911 14.1547 38.127 15.072 39.663 15.84C41.2203 16.5867 43.0017 17.1733 45.007 17.6ZM57.359 17.184C58.4683 16.2453 59.343 15.136 59.983 13.856C60.6443 12.5547 60.975 11.1253 60.975 9.568C60.975 8.05333 60.655 6.64533 60.015 5.344C59.375 4.04267 58.5003 2.93333 57.391 2.016L57.263 2.112C57.7323 3.24267 58.095 4.43733 58.351 5.696C58.6283 6.95467 58.767 8.256 58.767 9.6C58.767 10.9227 58.6283 12.2133 58.351 13.472C58.095 14.7093 57.7217 15.9147 57.231 17.088L57.359 17.184ZM46.159 22.88H47.663C47.727 22.5813 47.9297 22.2187 48.271 21.792C48.6123 21.3867 48.975 20.992 49.359 20.608C49.743 20.2453 50.0203 19.9787 50.191 19.808L50.127 19.712C49.6577 19.9253 49.1137 20.224 48.495 20.608C47.8977 21.0133 47.3643 21.4187 46.895 21.824C46.447 22.2293 46.2017 22.5813 46.159 22.88Z" fill="url(#paint1_linear_57_176)"/>
<path d="M87.7357 19.2C85.2397 19.2 83.1811 19.0827 81.5598 18.848C79.9384 18.6133 78.6584 18.2933 77.7197 17.888C76.7811 17.4827 76.0877 17.0453 75.6397 16.576C75.1917 16.0853 74.9037 15.5947 74.7757 15.104C74.6691 14.592 74.6158 14.112 74.6158 13.664V4.832C74.6158 3.76533 74.3277 3.02933 73.7517 2.624C73.1971 2.21867 72.5358 2.016 71.7678 2.016H70.6158V0.639999H88.7598V2.016H88.2477C87.4797 2.016 86.8078 2.21867 86.2318 2.624C85.6771 3.02933 85.3997 3.76533 85.3997 4.832V13.984C85.3997 15.2853 85.6344 16.2667 86.1038 16.928C86.5731 17.5893 87.3624 17.92 88.4717 17.92C90.3704 17.92 91.8104 17.728 92.7917 17.344C93.7731 16.96 94.4344 16.4587 94.7757 15.84C95.1171 15.2 95.2878 14.5173 95.2878 13.792V7.2C95.2878 6.048 95.0958 5.13067 94.7118 4.448C94.3491 3.744 93.8904 3.22133 93.3358 2.88C92.7811 2.51733 92.2157 2.28267 91.6397 2.176C91.0637 2.06933 90.5624 2.016 90.1357 2.016V0.639999H102.68V2.016C102.018 2.016 101.357 2.06933 100.696 2.176C100.056 2.28267 99.4691 2.51733 98.9358 2.88C98.4238 3.22133 98.0078 3.744 97.6878 4.448C97.3891 5.13067 97.2398 6.048 97.2398 7.2V13.024C97.2398 13.5147 97.1971 14.0373 97.1117 14.592C97.0477 15.1467 96.8558 15.7013 96.5358 16.256C96.2158 16.7893 95.7144 17.28 95.0318 17.728C94.3704 18.176 93.4424 18.528 92.2477 18.784C91.0744 19.0613 89.5704 19.2 87.7357 19.2ZM78.1998 16.064V2.016H76.6318V12.832C76.6318 13.7493 76.7597 14.4427 77.0157 14.912C77.2931 15.3813 77.5598 15.6907 77.8158 15.84C78.0718 15.9893 78.1998 16.064 78.1998 16.064Z" fill="url(#paint2_linear_57_176)"/>
<path d="M105.172 18.496V17.12H108.532C109.321 17.12 109.993 16.9173 110.548 16.512C111.102 16.0853 111.38 15.3493 111.38 14.304V4.896C111.38 4.128 111.102 3.456 110.548 2.88C109.993 2.304 109.321 2.016 108.532 2.016H105.172V0.639999H130.868C132.19 0.639999 133.428 0.682666 134.58 0.768C135.732 0.832 136.745 1.00267 137.62 1.28C138.494 1.536 139.177 1.952 139.668 2.528C140.158 3.08267 140.404 3.84 140.404 4.8C140.404 5.65333 140.19 6.368 139.764 6.944C139.337 7.49867 138.846 7.936 138.292 8.256C137.737 8.55467 137.278 8.768 136.916 8.896V9.024C137.278 9.088 137.737 9.216 138.292 9.408C138.868 9.6 139.444 9.87733 140.02 10.24C140.596 10.5813 141.076 11.0293 141.46 11.584C141.844 12.1387 142.036 12.8213 142.036 13.632C142.036 14.6133 141.748 15.424 141.172 16.064C140.617 16.6827 139.892 17.1733 138.996 17.536C138.121 17.8987 137.193 18.1547 136.212 18.304C135.252 18.432 134.377 18.496 133.588 18.496H105.172ZM113.396 17.12H114.996V2.016H113.396V17.12ZM122.196 8.48H126.356C126.889 8.48 127.422 8.37333 127.956 8.16C128.489 7.92533 128.937 7.57333 129.3 7.104C129.662 6.61333 129.844 5.99467 129.844 5.248C129.844 4.20267 129.449 3.40267 128.66 2.848C127.87 2.29333 126.75 2.016 125.3 2.016C124.34 2.016 123.582 2.25067 123.028 2.72C122.473 3.18933 122.196 3.81867 122.196 4.608V8.48ZM131.316 8.576C132.062 8.27733 132.692 7.82933 133.204 7.232C133.737 6.63467 134.004 6.02667 134.004 5.408C134.004 4.78933 133.737 4.18133 133.204 3.584C132.692 2.98667 132.062 2.54933 131.316 2.272L131.188 2.368C131.486 2.79467 131.732 3.27467 131.924 3.808C132.137 4.32 132.244 4.85333 132.244 5.408C132.244 5.94133 132.137 6.47467 131.924 7.008C131.732 7.54133 131.486 8.02133 131.188 8.448L131.316 8.576ZM132.02 17.216C132.937 16.8533 133.673 16.3307 134.228 15.648C134.782 14.944 135.06 14.1973 135.06 13.408C135.06 12.6187 134.782 11.872 134.228 11.168C133.673 10.464 132.937 9.94133 132.02 9.6L131.924 9.728C132.35 10.1973 132.692 10.752 132.948 11.392C133.204 12.032 133.332 12.704 133.332 13.408C133.332 14.112 133.204 14.784 132.948 15.424C132.692 16.064 132.35 16.6187 131.924 17.088L132.02 17.216ZM124.372 17.12H126.868C127.465 17.12 128.073 17.0133 128.692 16.8C129.31 16.5867 129.833 16.2133 130.26 15.68C130.686 15.1253 130.9 14.368 130.9 13.408C130.9 12.0853 130.473 11.136 129.62 10.56C128.788 9.984 127.774 9.696 126.58 9.696H122.196V14.432C122.196 15.2213 122.356 15.872 122.676 16.384C122.996 16.8747 123.561 17.12 124.372 17.12Z" fill="url(#paint3_linear_57_176)"/>
<path d="M145.359 18.496V17.12H148.719C149.53 17.12 150.202 16.9173 150.735 16.512C151.29 16.0853 151.567 15.3493 151.567 14.304V4.864C151.567 4.096 151.29 3.43467 150.735 2.88C150.202 2.304 149.53 2.016 148.719 2.016H145.359V0.639999H178.351V7.04H177.423C176.847 6.25067 176.037 5.472 174.991 4.704C173.967 3.936 172.655 3.296 171.055 2.784C169.477 2.272 167.567 2.016 165.327 2.016C164.41 2.016 163.685 2.26133 163.151 2.752C162.639 3.22133 162.383 3.82933 162.383 4.576V5.856C162.383 6.41067 162.533 6.944 162.831 7.456C163.13 7.94667 163.738 8.192 164.655 8.192C165.445 8.192 166.287 8.04267 167.183 7.744C168.079 7.424 168.89 6.99733 169.615 6.464C170.362 5.93067 170.885 5.35467 171.183 4.736H172.367V13.184H171.183C170.885 12.5013 170.362 11.9253 169.615 11.456C168.89 10.9653 168.079 10.6027 167.183 10.368C166.287 10.112 165.445 9.984 164.655 9.984C163.738 9.984 163.13 10.2293 162.831 10.72C162.533 11.2107 162.383 11.744 162.383 12.32V14.464C162.383 15.2533 162.543 15.8933 162.863 16.384C163.183 16.8747 163.749 17.12 164.559 17.12H167.023C168.197 17.12 169.413 17.0027 170.671 16.768C171.93 16.512 173.146 16.0533 174.319 15.392C175.493 14.7307 176.527 13.7813 177.423 12.544H178.351V18.496H145.359ZM153.551 17.12H155.183V2.016H153.551V17.12Z" fill="url(#paint4_linear_57_176)"/>
<defs>
<linearGradient id="paint0_linear_57_176" x1="165.492" y1="0.995973" x2="123.044" y2="79.2656" gradientUnits="userSpaceOnUse">
<stop stop-color="#7C51F3"/>
<stop offset="0.587978" stop-color="#41EAA2"/>
<stop offset="0.975" stop-color="#E1BBFB"/>
</linearGradient>
<linearGradient id="paint1_linear_57_176" x1="165.492" y1="0.995973" x2="123.044" y2="79.2656" gradientUnits="userSpaceOnUse">
<stop stop-color="#7C51F3"/>
<stop offset="0.587978" stop-color="#41EAA2"/>
<stop offset="0.975" stop-color="#E1BBFB"/>
</linearGradient>
<linearGradient id="paint2_linear_57_176" x1="165.492" y1="0.995973" x2="123.044" y2="79.2656" gradientUnits="userSpaceOnUse">
<stop stop-color="#7C51F3"/>
<stop offset="0.587978" stop-color="#41EAA2"/>
<stop offset="0.975" stop-color="#E1BBFB"/>
</linearGradient>
<linearGradient id="paint3_linear_57_176" x1="165.492" y1="0.995973" x2="123.044" y2="79.2656" gradientUnits="userSpaceOnUse">
<stop stop-color="#7C51F3"/>
<stop offset="0.587978" stop-color="#41EAA2"/>
<stop offset="0.975" stop-color="#E1BBFB"/>
</linearGradient>
<linearGradient id="paint4_linear_57_176" x1="165.492" y1="0.995973" x2="123.044" y2="79.2656" gradientUnits="userSpaceOnUse">
<stop stop-color="#7C51F3"/>
<stop offset="0.587978" stop-color="#41EAA2"/>
<stop offset="0.975" stop-color="#E1BBFB"/>
</linearGradient>
</defs>
</svg>
