<svg width="32" height="66" viewBox="0 0 32 66" fill="none" xmlns="http://www.w3.org/2000/svg">
<g opacity="0.75" filter="url(#filter0_ii_58_39)">
<path d="M0 50C0 58.8366 7.16344 66 16 66C24.8366 66 32 58.8366 32 50V16C32 7.16344 24.8366 0 16 0C7.16344 0 0 7.16344 0 16V50Z" fill="url(#paint0_linear_58_39)"/>
<path d="M24.0001 54C24.0001 49.5817 20.4184 46 16.0001 46C11.5819 46 8.00013 49.5817 8.00013 54C8.00013 58.4183 11.5819 62 16.0001 62C20.4184 62 24.0001 58.4183 24.0001 54Z" fill="url(#paint1_radial_58_39)"/>
</g>
<defs>
<filter id="filter0_ii_58_39" x="-1" y="-1" width="34" height="68" filterUnits="userSpaceOnUse" color-interpolation-filters="sRGB">
<feFlood flood-opacity="0" result="BackgroundImageFix"/>
<feBlend mode="normal" in="SourceGraphic" in2="BackgroundImageFix" result="shape"/>
<feColorMatrix in="SourceAlpha" type="matrix" values="0 0 0 0 0 0 0 0 0 0 0 0 0 0 0 0 0 0 127 0" result="hardAlpha"/>
<feOffset dx="-1" dy="-1"/>
<feGaussianBlur stdDeviation="0.5"/>
<feComposite in2="hardAlpha" operator="arithmetic" k2="-1" k3="1"/>
<feColorMatrix type="matrix" values="0 0 0 0 0 0 0 0 0 0 0 0 0 0 0 0 0 0 0.5 0"/>
<feBlend mode="normal" in2="shape" result="effect1_innerShadow_58_39"/>
<feColorMatrix in="SourceAlpha" type="matrix" values="0 0 0 0 0 0 0 0 0 0 0 0 0 0 0 0 0 0 127 0" result="hardAlpha"/>
<feOffset dx="1" dy="1"/>
<feGaussianBlur stdDeviation="0.5"/>
<feComposite in2="hardAlpha" operator="arithmetic" k2="-1" k3="1"/>
<feColorMatrix type="matrix" values="0 0 0 0 0 0 0 0 0 0 0 0 0 0 0 0 0 0 0.5 0"/>
<feBlend mode="normal" in2="effect1_innerShadow_58_39" result="effect2_innerShadow_58_39"/>
</filter>
<linearGradient id="paint0_linear_58_39" x1="29.6928" y1="2.7136" x2="-3.33043" y2="6.72343" gradientUnits="userSpaceOnUse">
<stop stop-color="#7C51F3"/>
<stop offset="0.587978" stop-color="#41EAA2"/>
<stop offset="0.975" stop-color="#E1BBFB"/>
</linearGradient>
<radialGradient id="paint1_radial_58_39" cx="0" cy="0" r="1" gradientUnits="userSpaceOnUse" gradientTransform="translate(16 57) rotate(-90) scale(5)">
<stop stop-color="#484F90"/>
<stop offset="0.706731" stop-color="#15172A"/>
</radialGradient>
</defs>
</svg>
