<svg width="16" height="16" viewBox="0 0 16 16" fill="none" xmlns="http://www.w3.org/2000/svg">
<path d="M0 1.03226C0 0.462158 0.462158 0 1.03226 0H14.9677C15.5378 0 16 0.462158 16 1.03226V14.9677C16 15.5378 15.5378 16 14.9677 16H1.03226C0.462158 16 0 15.5378 0 14.9677V1.03226Z" fill="url(#paint0_radial_50_13)" fill-opacity="0.8"/>
<path d="M10.5806 8C10.5806 9.42525 9.42525 10.5806 8 10.5806C6.57475 10.5806 5.41935 9.42525 5.41935 8C5.41935 6.57475 6.57475 5.41935 8 5.41935C9.42525 5.41935 10.5806 6.57475 10.5806 8Z" fill="white" fill-opacity="0.8"/>
<path d="M1.7575 8.9355C1.59067 8.9355 1.4385 8.92817 1.301 8.9135C1.16533 8.89883 1.03608 8.87775 0.91325 8.85025C0.790417 8.82092 0.66575 8.78792 0.53925 8.75125L0.476 8.886H0.35225V8.215H0.476C0.499833 8.27 0.551167 8.33233 0.63 8.402C0.708833 8.47167 0.806917 8.53858 0.92425 8.60275C1.04342 8.66692 1.17358 8.72008 1.31475 8.76225C1.45775 8.80258 1.60442 8.82275 1.75475 8.82275C1.81342 8.82275 1.87208 8.82 1.93075 8.8145C1.98942 8.809 2.038 8.79892 2.0765 8.78425C2.115 8.76775 2.13425 8.74483 2.13425 8.7155C2.13425 8.68433 2.10858 8.65592 2.05725 8.63025C2.00775 8.60275 1.94083 8.578 1.8565 8.556C1.77217 8.53217 1.67683 8.50833 1.5705 8.4845C1.466 8.46067 1.35692 8.435 1.24325 8.4075C1.13142 8.37817 1.02233 8.34608 0.916 8.31125C0.8115 8.27642 0.717083 8.237 0.63275 8.193C0.548417 8.14717 0.480583 8.09492 0.42925 8.03625C0.37975 7.97575 0.355 7.90792 0.355 7.83275C0.355 7.72458 0.378833 7.63658 0.4265 7.56875C0.474167 7.49908 0.5365 7.445 0.6135 7.4065C0.692333 7.368 0.779417 7.3405 0.87475 7.324C0.970083 7.30567 1.06542 7.29467 1.16075 7.291C1.25792 7.28733 1.34683 7.2855 1.4275 7.2855C1.68233 7.2855 1.90692 7.30292 2.10125 7.33775C2.29742 7.37258 2.47158 7.41017 2.62375 7.4505C2.62925 7.42483 2.63567 7.40283 2.643 7.3845C2.65217 7.36433 2.6595 7.34692 2.665 7.33225H2.78875V7.8575H2.66775C2.59992 7.7915 2.51375 7.73008 2.40925 7.67325C2.30475 7.61642 2.19292 7.56783 2.07375 7.5275C1.95642 7.48533 1.84183 7.45325 1.73 7.43125C1.62 7.40742 1.52375 7.3955 1.44125 7.3955C1.36242 7.3955 1.29458 7.40467 1.23775 7.423C1.18275 7.44133 1.15525 7.478 1.15525 7.533C1.15525 7.5715 1.17908 7.60358 1.22675 7.62925C1.27625 7.65308 1.34133 7.67417 1.422 7.6925C1.5045 7.71083 1.59617 7.72825 1.697 7.74475C1.79967 7.76125 1.90508 7.77958 2.01325 7.79975C2.12325 7.81992 2.22867 7.84558 2.3295 7.87675C2.43217 7.90608 2.52383 7.94367 2.6045 7.9895C2.687 8.0335 2.75208 8.0885 2.79975 8.1545C2.84925 8.2205 2.874 8.30025 2.874 8.39375C2.874 8.52208 2.82817 8.62658 2.7365 8.70725C2.64483 8.78608 2.51558 8.84383 2.34875 8.8805C2.18192 8.91717 1.98483 8.9355 1.7575 8.9355ZM2.401 8.677C2.401 8.67333 2.40283 8.6715 2.4065 8.6715C2.412 8.66967 2.41475 8.66692 2.41475 8.66325C2.41475 8.58442 2.38908 8.52117 2.33775 8.4735C2.28642 8.42583 2.21675 8.38733 2.12875 8.358C2.04075 8.32867 1.94083 8.303 1.829 8.281C1.719 8.25717 1.60442 8.2315 1.48525 8.204C1.37158 8.17833 1.25975 8.14808 1.14975 8.11325C1.04158 8.07842 0.9435 8.039 0.8555 7.995C0.769333 7.94917 0.699667 7.89875 0.6465 7.84375C0.595167 7.78875 0.568583 7.72733 0.56675 7.6595H0.5475C0.534667 7.68333 0.5255 7.70717 0.52 7.731C0.5145 7.75483 0.51175 7.77775 0.51175 7.79975C0.51175 7.88408 0.556667 7.96017 0.6465 8.028C0.736333 8.094 0.872917 8.15725 1.05625 8.21775C1.23958 8.27642 1.47242 8.33875 1.75475 8.40475C1.87025 8.43042 1.96742 8.45517 2.04625 8.479C2.12692 8.501 2.19475 8.52667 2.24975 8.556C2.30658 8.58533 2.357 8.62567 2.401 8.677Z" fill="black"/>
<path d="M4.14029 9.36725V9.25725C4.17329 9.18758 4.23287 9.12617 4.31904 9.073C4.40521 9.02167 4.49504 8.97675 4.58854 8.93825L4.58579 8.93C4.39146 8.919 4.20996 8.89058 4.04129 8.84475C3.87262 8.79892 3.72504 8.73933 3.59854 8.666C3.47204 8.59267 3.37304 8.50833 3.30154 8.413C3.23004 8.31767 3.19429 8.21683 3.19429 8.1105C3.19429 7.995 3.23004 7.88775 3.30154 7.78875C3.37304 7.68792 3.47479 7.59992 3.60679 7.52475C3.74062 7.44958 3.90196 7.39092 4.09079 7.34875C4.27962 7.30658 4.49046 7.2855 4.72329 7.2855C4.95612 7.2855 5.16604 7.30658 5.35304 7.34875C5.54187 7.39092 5.70229 7.44958 5.83429 7.52475C5.96812 7.59992 6.06987 7.68792 6.13954 7.78875C6.21104 7.88775 6.24679 7.995 6.24679 8.1105C6.24679 8.215 6.21196 8.314 6.14229 8.4075C6.07262 8.49917 5.97637 8.58167 5.85354 8.655C5.73071 8.7265 5.58862 8.78608 5.42729 8.83375C5.26596 8.88142 5.09271 8.91258 4.90754 8.92725C4.86354 8.99142 4.84154 9.0565 4.84154 9.1225C4.84154 9.15733 4.84887 9.18758 4.86354 9.21325C4.87821 9.23892 4.89837 9.25175 4.92404 9.25175H5.29804V9.36725H4.14029ZM4.72329 8.82C4.87362 8.82 4.99004 8.76042 5.07254 8.64125C5.15687 8.52025 5.19904 8.34333 5.19904 8.1105C5.19904 7.95283 5.18529 7.82175 5.15779 7.71725C5.13212 7.61092 5.08446 7.53117 5.01479 7.478C4.94696 7.42483 4.84979 7.39825 4.72329 7.39825C4.59862 7.39825 4.50146 7.42483 4.43179 7.478C4.36212 7.53117 4.31354 7.61092 4.28604 7.71725C4.25854 7.82175 4.24479 7.95283 4.24479 8.1105C4.24479 8.34333 4.28696 8.52025 4.37129 8.64125C4.45562 8.76042 4.57296 8.82 4.72329 8.82ZM4.22004 8.798L4.22554 8.77875C4.08987 8.74392 3.96887 8.69442 3.86254 8.63025C3.75621 8.56608 3.67279 8.49 3.61229 8.402C3.55179 8.314 3.52154 8.21683 3.52154 8.1105C3.52154 8.00233 3.55179 7.90425 3.61229 7.81625C3.67279 7.72825 3.75621 7.65217 3.86254 7.588C3.96887 7.52383 4.09079 7.47433 4.22829 7.4395L4.22279 7.423C4.05046 7.45783 3.89737 7.50825 3.76354 7.57425C3.62971 7.63842 3.52429 7.71633 3.44729 7.808C3.37212 7.89783 3.33454 7.99775 3.33454 8.10775C3.33454 8.21775 3.37212 8.31858 3.44729 8.41025C3.52429 8.50192 3.62879 8.58075 3.76079 8.64675C3.89462 8.71092 4.04771 8.76133 4.22004 8.798ZM5.28154 8.76225C5.37687 8.68158 5.45204 8.58625 5.50704 8.47625C5.56387 8.36442 5.59229 8.24158 5.59229 8.10775C5.59229 7.97758 5.56479 7.85658 5.50979 7.74475C5.45479 7.63292 5.37962 7.53758 5.28429 7.45875L5.27329 7.467C5.31362 7.56417 5.34479 7.66683 5.36679 7.775C5.39062 7.88317 5.40254 7.995 5.40254 8.1105C5.40254 8.22417 5.39062 8.33508 5.36679 8.44325C5.34479 8.54958 5.31271 8.65317 5.27054 8.754L5.28154 8.76225ZM4.31904 9.25175H4.44829C4.45379 9.22608 4.47121 9.19492 4.50054 9.15825C4.52987 9.12342 4.56104 9.0895 4.59404 9.0565C4.62704 9.02533 4.65087 9.00242 4.66554 8.98775L4.66004 8.9795C4.61971 8.99783 4.57296 9.0235 4.51979 9.0565C4.46846 9.09133 4.42262 9.12617 4.38229 9.161C4.34379 9.19583 4.32271 9.22608 4.31904 9.25175Z" fill="black"/>
<path d="M7.89204 8.9355C7.67754 8.9355 7.50062 8.92542 7.36129 8.90525C7.22196 8.88508 7.11196 8.85758 7.03129 8.82275C6.95062 8.78792 6.89104 8.75033 6.85254 8.71C6.81404 8.66783 6.78929 8.62567 6.77829 8.5835C6.76912 8.5395 6.76454 8.49825 6.76454 8.45975V7.70075C6.76454 7.60908 6.73979 7.54583 6.69029 7.511C6.64262 7.47617 6.58579 7.45875 6.51979 7.45875H6.42079V7.3405H7.98004V7.45875H7.93604C7.87004 7.45875 7.81229 7.47617 7.76279 7.511C7.71512 7.54583 7.69129 7.60908 7.69129 7.70075V8.48725C7.69129 8.59908 7.71146 8.68342 7.75179 8.74025C7.79212 8.79708 7.85996 8.8255 7.95529 8.8255C8.11846 8.8255 8.24221 8.809 8.32654 8.776C8.41087 8.743 8.46771 8.69992 8.49704 8.64675C8.52637 8.59175 8.54104 8.53308 8.54104 8.47075V7.90425C8.54104 7.80525 8.52454 7.72642 8.49154 7.66775C8.46037 7.60725 8.42096 7.56233 8.37329 7.533C8.32562 7.50183 8.27704 7.48167 8.22754 7.4725C8.17804 7.46333 8.13496 7.45875 8.09829 7.45875V7.3405H9.17629V7.45875C9.11946 7.45875 9.06262 7.46333 9.00579 7.4725C8.95079 7.48167 8.90037 7.50183 8.85454 7.533C8.81054 7.56233 8.77479 7.60725 8.74729 7.66775C8.72162 7.72642 8.70879 7.80525 8.70879 7.90425V8.40475C8.70879 8.44692 8.70512 8.49183 8.69779 8.5395C8.69229 8.58717 8.67579 8.63483 8.64829 8.6825C8.62079 8.72833 8.57771 8.7705 8.51904 8.809C8.46221 8.8475 8.38246 8.87775 8.27979 8.89975C8.17896 8.92358 8.04971 8.9355 7.89204 8.9355ZM7.07254 8.666V7.45875H6.93779V8.38825C6.93779 8.46708 6.94879 8.52667 6.97079 8.567C6.99462 8.60733 7.01754 8.63392 7.03954 8.64675C7.06154 8.65958 7.07254 8.666 7.07254 8.666Z" fill="black"/>
<path d="M9.39045 8.875V8.75675H9.6792C9.74703 8.75675 9.80478 8.73933 9.85245 8.7045C9.90011 8.66783 9.92395 8.60458 9.92395 8.51475V7.70625C9.92395 7.64025 9.90011 7.5825 9.85245 7.533C9.80478 7.4835 9.74703 7.45875 9.6792 7.45875H9.39045V7.3405H11.5987C11.7124 7.3405 11.8187 7.34417 11.9177 7.3515C12.0167 7.357 12.1038 7.37167 12.1789 7.3955C12.2541 7.4175 12.3128 7.45325 12.3549 7.50275C12.3971 7.55042 12.4182 7.6155 12.4182 7.698C12.4182 7.77133 12.3999 7.83275 12.3632 7.88225C12.3265 7.92992 12.2844 7.9675 12.2367 7.995C12.189 8.02067 12.1496 8.039 12.1184 8.05V8.061C12.1496 8.0665 12.189 8.0775 12.2367 8.094C12.2862 8.1105 12.3357 8.13433 12.3852 8.1655C12.4347 8.19483 12.4759 8.23333 12.5089 8.281C12.5419 8.32867 12.5584 8.38733 12.5584 8.457C12.5584 8.54133 12.5337 8.611 12.4842 8.666C12.4365 8.71917 12.3742 8.76133 12.2972 8.7925C12.222 8.82367 12.1423 8.84567 12.0579 8.8585C11.9754 8.8695 11.9003 8.875 11.8324 8.875H9.39045ZM10.0972 8.75675H10.2347V7.45875H10.0972V8.75675ZM10.8534 8.01425H11.2109C11.2568 8.01425 11.3026 8.00508 11.3484 7.98675C11.3943 7.96658 11.4328 7.93633 11.4639 7.896C11.4951 7.85383 11.5107 7.80067 11.5107 7.7365C11.5107 7.64667 11.4768 7.57792 11.4089 7.53025C11.3411 7.48258 11.2449 7.45875 11.1202 7.45875C11.0377 7.45875 10.9726 7.47892 10.9249 7.51925C10.8773 7.55958 10.8534 7.61367 10.8534 7.6815V8.01425ZM11.6372 8.0225C11.7014 7.99683 11.7554 7.95833 11.7994 7.907C11.8453 7.85567 11.8682 7.80342 11.8682 7.75025C11.8682 7.69708 11.8453 7.64483 11.7994 7.5935C11.7554 7.54217 11.7014 7.50458 11.6372 7.48075L11.6262 7.489C11.6519 7.52567 11.6729 7.56692 11.6894 7.61275C11.7078 7.65675 11.7169 7.70258 11.7169 7.75025C11.7169 7.79608 11.7078 7.84192 11.6894 7.88775C11.6729 7.93358 11.6519 7.97483 11.6262 8.0115L11.6372 8.0225ZM11.6977 8.765C11.7765 8.73383 11.8398 8.68892 11.8874 8.63025C11.9351 8.56975 11.9589 8.50558 11.9589 8.43775C11.9589 8.36992 11.9351 8.30575 11.8874 8.24525C11.8398 8.18475 11.7765 8.13983 11.6977 8.1105L11.6894 8.1215C11.7261 8.16183 11.7554 8.2095 11.7774 8.2645C11.7994 8.3195 11.8104 8.37725 11.8104 8.43775C11.8104 8.49825 11.7994 8.556 11.7774 8.611C11.7554 8.666 11.7261 8.71367 11.6894 8.754L11.6977 8.765ZM11.0404 8.75675H11.2549C11.3063 8.75675 11.3585 8.74758 11.4117 8.72925C11.4649 8.71092 11.5098 8.67883 11.5464 8.633C11.5831 8.58533 11.6014 8.52025 11.6014 8.43775C11.6014 8.32408 11.5648 8.2425 11.4914 8.193C11.4199 8.1435 11.3329 8.11875 11.2302 8.11875H10.8534V8.52575C10.8534 8.59358 10.8672 8.6495 10.8947 8.6935C10.9222 8.73567 10.9708 8.75675 11.0404 8.75675Z" fill="black"/>
<path d="M12.8441 8.875V8.75675H13.1328C13.2025 8.75675 13.2602 8.73933 13.3061 8.7045C13.3537 8.66783 13.3776 8.60458 13.3776 8.51475V7.7035C13.3776 7.6375 13.3537 7.58067 13.3061 7.533C13.2602 7.4835 13.2025 7.45875 13.1328 7.45875H12.8441V7.3405H15.6793V7.8905H15.5996C15.5501 7.82267 15.4804 7.75575 15.3906 7.68975C15.3026 7.62375 15.1898 7.56875 15.0523 7.52475C14.9166 7.48075 14.7526 7.45875 14.5601 7.45875C14.4812 7.45875 14.4189 7.47983 14.3731 7.522C14.3291 7.56233 14.3071 7.61458 14.3071 7.67875V7.78875C14.3071 7.83642 14.3199 7.88225 14.3456 7.92625C14.3712 7.96842 14.4235 7.9895 14.5023 7.9895C14.5701 7.9895 14.6426 7.97667 14.7196 7.951C14.7966 7.9235 14.8662 7.88683 14.9286 7.841C14.9927 7.79517 15.0376 7.74567 15.0633 7.6925H15.1651V8.4185H15.0633C15.0376 8.35983 14.9927 8.31033 14.9286 8.27C14.8662 8.22783 14.7966 8.19667 14.7196 8.1765C14.6426 8.1545 14.5701 8.1435 14.5023 8.1435C14.4235 8.1435 14.3712 8.16458 14.3456 8.20675C14.3199 8.24892 14.3071 8.29475 14.3071 8.34425V8.5285C14.3071 8.59633 14.3208 8.65133 14.3483 8.6935C14.3758 8.73567 14.4244 8.75675 14.4941 8.75675H14.7058C14.8066 8.75675 14.9111 8.74667 15.0193 8.7265C15.1275 8.7045 15.232 8.66508 15.3328 8.60825C15.4336 8.55142 15.5226 8.46983 15.5996 8.3635H15.6793V8.875H12.8441ZM13.5481 8.75675H13.6883V7.45875H13.5481V8.75675Z" fill="black"/>
<defs>
<radialGradient id="paint0_radial_50_13" cx="0" cy="0" r="1" gradientUnits="userSpaceOnUse" gradientTransform="translate(8 8) rotate(90) scale(8)">
<stop offset="0.340481" stop-color="white" stop-opacity="0.6"/>
<stop offset="0.77923" stop-color="white"/>
<stop offset="1" stop-color="#D3D3D3" stop-opacity="0.1"/>
</radialGradient>
</defs>
</svg>
